<svg width="1066.667" height="1066.667" xmlns="http://www.w3.org/2000/svg"><defs><clipPath clipPathUnits="userSpaceOnUse" id="a"><path d="M0 800h800V0H0z"/></clipPath></defs><g clip-path="url(#a)" transform="matrix(1.33333 0 0 -1.33333 0 1066.667)"><path d="M752.414 507.554a61.147 61.147 0 01-1.58 1.718l-.615-1.266z" fill="#b4281c"/><path d="M766.746 443.784c1.033.227 1.904.524 2.577.894 5.638 3.093 13.277 14.005 13.277 18.734 0 2.182-2.91 7.638-6.366 12.004-3.457 4.366-9.822 13.094-14.37 19.642-3.588 5.268-6.629 9.314-9.45 12.496l-2.195.452z" fill="#b28e76"/><path d="M750.219 508.006l.615 1.266c-3.28 3.42-6.332 5.699-9.702 7.429-6.912 3.637-9.458 10.004-12.368 31.285-1.456 11.456-3.455 23.826-4.546 27.644-.201.75-.438 1.491-.701 2.216l-21.444-5.636c-.177-.572-.384-1.032-.591-1.308-.198-.197-.997.017-2.251.561l-16.756-4.405z" fill="#c32500"/><path d="M699.231 571.463c-2.539 1.1-6.938 3.549-11.976 6.645l-4.78-11.05zm13.528 18.172c-3.456 0-10.186-9.459-10.186-14.005 0-1.241-.21-2.483-.5-3.42l21.444 5.636c-2.353 6.491-6.996 11.789-10.758 11.789" fill="#c10600"/><path d="M727.477 450.472c2.509-.788 4.953-1.607 6.925-2.338 10.633-4.125 25.279-5.898 32.344-4.35l-16.527 64.222z" fill="#abc38b"/><path d="M687.255 578.108a257.538 257.538 0 00-6.245 3.966l1.465-15.016z" fill="#c60800"/><path d="M692.206 461.047c.364 1.273 3.456.548 8.73-2 4.365-2 11.64-4.729 16.188-5.638 2.72-.654 6.611-1.762 10.353-2.937l22.742 57.534-92.79 2.277a73.394 73.394 0 01-3.72-2.579l27.983-62.362c5.061 6.156 9.335 12.384 10.514 15.705" fill="#c8c46c"/><path d="M682.475 567.058l-9.111-17.22c4.678-9.245 9.634-16.168 13.749-18.769 7.821-5.091 8.004-6.91 1.091-6.91-5.035 0-20.558-7.218-30.775-13.876l92.79-2.277z" fill="#ce620a"/><path d="M599.441 374.615l50.977 130.464-2.953-2.382-3.569 3.568-78.627-37.827z" fill="#dae262"/><path d="M624.013 193.521l.353-.016c12.366-.728 12.55-.545 13.822 4.364 1.173 4.547-.226 11.428-3.16 18.583l-21.198-10.599z" fill="#008ad9"/><path d="M608.271 367.492c2.644 2.846 4.555 6.038 5.907 9.761l-14.737-2.638z" fill="#74e0e0"/><path d="M614.178 377.253c1.02 2.809 1.725 5.916 2.184 9.407 2.003 13.639 6.004 18.005 26.192 28.371 10.002 5.275 22.735 13.458 28.19 18.553 3.512 3.212 7.421 7.469 10.948 11.758l-27.983 62.362a67.268 67.268 0 01-.605-.459l-2.686-2.166-50.977-130.464z" fill="#afdf7b"/><path d="M635.028 216.452c-1.657 4.042-3.803 8.17-6.255 12.015l-14.943-22.614z" fill="#009be2"/><path d="M628.773 228.467c-3.969 6.232-8.735 11.718-13.501 14.872-3.214 2.096-13.408 6.449-25.054 10.744l23.612-48.23z" fill="#14b4ec"/><path d="M681.01 582.074a252.25 252.25 0 00-6.082 4.107c-11.459 8.002-15.824 1.817-10.368-14.917a174.647 174.647 0 011.684-4.851l16.231.645z" fill="#dc2b00"/><path d="M666.244 566.413c2.179-5.988 4.61-11.616 7.12-16.575l9.111 17.22z" fill="#df5e00"/><path d="M569.246 350.162c5.217.717 10.844 2.115 16.197 4.122 10.752 3.987 18.008 8.02 22.828 13.208l-8.83 7.123z" fill="#67d7ef"/><path d="M612.728 193.05c1.387.766 4.485.784 11.285.471l-10.183 12.332z" fill="#0074d4"/><path d="M643.896 506.265l-4.071 4.07c-7.274 7.458-15.459 11.641-30.919 15.46-4.366 1.092-15.823 8.184-28.191 17.461-9.948 7.379-18.463 13.182-26.438 17.877l10.992-92.695z" fill="#e88200"/><path d="M565.269 468.438l-45.263-68.644 79.435-25.179z" fill="#dcf07c"/><path d="M590.218 254.083a406.6 406.6 0 01-10.776 3.806c-34.678 11.834-52.414 21.98-57.127 38.114l-30.353-41.928c5.678-2.492 10.091-5.306 14.184-8.918 4.727-4 14.55-12.549 22.005-18.732 2.578-2.137 5.808-4.992 9.277-8.166l76.402-12.406z" fill="#31bded"/><path d="M601.45 182.957c7.456-1.273 10.184.726 10.184 7.456 0 1.291.174 2.128 1.094 2.637l1.102 12.803-26.505-22.523c4.484 1.068 5.723.943 14.125-.373" fill="#0069d5"/><path d="M537.428 218.259c6.566-6.008 13.986-13.158 19.462-18.753 15.822-16.003 20.369-18.552 28.918-16.549.548.137 1.05.262 1.517.373l26.505 22.523z" fill="#0181dd"/><path d="M522 315.564l-58.048-39.569 2.444-12.065c3.527-1.784 9.682-4.203 15.742-6.222 3.69-1.17 6.922-2.359 9.824-3.633l30.353 41.928c-1.657 5.67-1.706 12.079-.315 19.561" fill="#8bebdb"/><path d="M565.269 468.438l-10.992 92.695-.399.234-38.068-75.243z" fill="#f38900"/><path d="M520.006 399.794l18.473-39.117 2.951 6.886 3.091-7.094c1.818-3.819 4.73-7.821 6.73-8.913 3.763-2.042 10.451-2.431 17.995-1.394l30.195 24.453z" fill="#b7f3bb"/><path d="M515.043 577.47a236.2 236.2 0 01-2.714.707c-3.867.956-7.245 1.733-10.392 2.366l3.981-32.67z" fill="#ef3500"/><path d="M553.299 561.705c-12.819 7.442-24.319 12.041-38.256 15.765l-9.125-29.597z" fill="#f43800"/><path d="M515.81 486.124l38.068 75.243-.579.338-47.381-13.832z" fill="#f77700"/><path d="M515.81 486.124l4.196-86.33 45.263 68.644z" fill="#f2da4a"/><path d="M501.937 580.543c-10.025 2.015-17.693 2.543-31.258 2.543-21.097 0-22.553-.362-43.651-7.818-.866-.307-1.737-.62-2.615-.941l81.505-26.454z" fill="#fb6100"/><path d="M532.699 347.191l5.78 13.486-18.473 39.117-51-16.723c1.671-9.243 2.846-17.921 3.517-26.131l57.488-16.124a305.228 305.228 0 002.688 6.375" fill="#d8f890"/><path d="M522 315.564c1.355 7.294 4.078 15.61 8.011 25.252l-57.488 16.124c1.873-22.87-.154-42.105-6.21-59.764-2.134-6.222-3.632-11.375-4.512-15.634l2.151-5.547z" fill="#c5f5c1"/><path d="M395.607 507.706l20.648-88.96c8.191-4.864 18.011-8.23 31.325-10.806a110.877 110.877 0 007.778-1.801l60.452 79.985z" fill="#ffd100"/><path d="M515.81 486.124l-60.452-79.985c5.104-1.394 8.508-2.833 9.136-3.838.728-1.455 2.183-7.276 3.277-12.732.438-2.198.848-4.362 1.235-6.498l51 16.723z" fill="#f9ed2d"/><path d="M395.607 507.706l120.203-21.582-9.892 61.749z" fill="#fd9d00"/><path d="M505.918 547.873l-81.505 26.454c-6.563-2.403-13.587-5.288-22.738-9.448l-6.068-57.173z" fill="#ff9300"/><path d="M461.801 281.542c-.389-1.877-.655-3.578-.802-5.12l2.953-.427z" fill="#cbf387"/><path d="M460.999 276.422c-.519-5.392.419-8.825 2.77-10.895.472-.423 1.388-.972 2.627-1.597l-2.444 12.065z" fill="#96eaa2"/><path d="M368.338 464.5c.197-.998.355-2.087.489-3.272 1.274-9.456 9.094-25.28 14.915-29.827 2.909-2.363 7.457-3.637 12.186-3.637 5.457 0 9.457-1.455 14.004-4.731a63.756 63.756 0 016.323-4.287l-20.648 88.96z" fill="#ffce00"/><path d="M270.609 475.932l12.969-18.128c9.696 1.904 21.852 4.814 40.325 9.246 35.213 8.344 42.249 8.569 44.435-2.55l27.269 43.206z" fill="#feb200"/><path d="M401.675 564.879c-11.878-5.399-27.345-12.948-50.054-24.379l43.986-32.794z" fill="#ff8500"/><path d="M395.607 507.706L351.621 540.5a6236.892 6236.892 0 01-20.079-10.159c-13.106-6.6-29.294-13.59-45.748-19.856l-15.185-34.553z" fill="#fe9400"/><path d="M255.739 454.499c9.675.355 17.306 1.235 27.839 3.305l-12.969 18.128z" fill="#ffa300"/><path d="M285.794 510.485c-11.961-4.557-24.059-8.729-35.221-12.092l20.036-22.461z" fill="#fd7700"/><path d="M183.979 466.939l5.634-11.674c8.782-.778 19.633-.947 38.26-.947 11.935-.051 20.493-.089 27.866.181l14.87 21.433z" fill="#f80"/><path d="M270.609 475.932l-20.036 22.461a355.786 355.786 0 00-9.06-2.608c-18.475-5.097-37.682-6.95-56.995-5.638l-.539-23.208z" fill="#fd7400"/><path d="M183.979 466.939l.539 23.208c-15.244 1.036-30.552 4.046-45.62 8.989l-14.87-22.304z" fill="#fa6200"/><path d="M172.551 457.876c5.948-1.255 11.016-2.077 17.062-2.611l-5.634 11.674z" fill="#ff7200"/><path d="M124.028 476.832l-.632-4.293c13.355-5.808 28.147-10.144 46.275-14.039.987-.22 1.945-.428 2.88-.624l11.428 9.063z" fill="#fa6800"/><path d="M138.898 499.136a199.668 199.668 0 00-12.232 4.461l-2.638-26.765z" fill="#f64d00"/><path d="M67.987 510.761c17.424-16.241 32.513-27.311 49.608-35.562l6.433 1.633z" fill="#e94c00"/><path d="M29.625 600.912c0 12.549-1.818 15.459-5.639 8.365-3.181-5.835-1.036-26.626 3.933-41.984l11.179 3.23c-6.91 10.305-9.473 19.35-9.473 30.389" fill="#dd1c00"/><path d="M126.666 503.597a207.316 207.316 0 00-15.741 7.104c-23.644 11.822-36.74 21.278-54.383 39.285-7.624 7.761-13.311 14.374-17.444 20.537l-11.179-3.23c.143-.438.286-.873.433-1.302 6.184-17.642 18.007-34.557 35.466-51.29a422.661 422.661 0 014.169-3.94l56.041-33.929z" fill="#ed4100"/><path d="M117.595 475.199c1.907-.92 3.838-1.807 5.801-2.66l.632 4.293z" fill="#f55e00"/></g></svg>