<svg version="1.0" xmlns="http://www.w3.org/2000/svg" width="1024" height="1024" viewBox="0 0 768 768"><path d="M0 384v384h768V0H0v384zM269.5 67.6c27.7 7.1 40.4 39.9 24.5 63-4.1 5.9-11.5 12.2-18 15.2-4.8 2.3-6.8 2.6-16.5 2.6-10.4.1-11.3-.1-17.7-3.2-8.8-4.3-17.6-13.7-20.9-22.5-1.9-4.9-2.4-8.1-2.4-15.7 0-8.6.3-10.1 3.1-16 5.6-11.7 13.4-18.6 25.3-22.7 7.8-2.7 14.5-2.9 22.6-.7zM624 97c2.8 5.2-.3 10.9-6.4 11.9-3.7.6-4.2 1.2-14.7 18.1-7.1 11.3-10.7 18-10.3 19 1.8 4.2 1.6 6.9-.9 9.4-4.9 4.9-12.7 1.8-12.7-5 0-3.1-.7-3.7-11.2-10.4-8.2-5.1-11.8-6.9-13.3-6.4-1.1.3-3.3.8-5 1.1-2.6.4-4.1 2.3-11.3 13.9-8.3 13.3-8.3 13.4-7 17 1 3 1 3.9-.3 6.2-1.7 3.2-5.6 4.7-9.2 3.8-3.1-.7-6.1-5.8-5.2-8.7 1-3.2 4.6-5.9 7.9-5.9 2.9 0 3.7-1 11.7-13.9 8-12.9 8.5-14 7.3-16.2-1.9-3.5-1.7-5.4.9-8.5 4.7-5.5 13.7-1.8 13.7 5.6 0 2.5 1.2 3.6 10.3 9.4 11.6 7.4 13.2 8.2 14.2 6.7.3-.6 2.1-1.1 3.9-1.1 3.2 0 3.7-.6 13.8-16.8 5.8-9.2 10.8-17.2 11.1-17.8.4-.6.1-2.4-.5-4.1-1.6-4.4-.3-8.2 3.4-9.7 3.7-1.6 8.3-.4 9.8 2.4zM93.2 277.1c13.9 3 22.7 11.6 26.4 25.8 3.7 14.5-3.8 30-17.7 37-18.8 9.4-40.4.2-46.9-19.9-1.8-5.6-2.1-8.2-1.6-12.8 1.7-14.4 11.5-25.9 25.4-29.7 6.1-1.7 8-1.7 14.4-.4zM707.7 296c18.8 10.5 20.3 11.6 20.3 14.4 0 3.1-1.3 4.1-19 14.2-15.2 8.7-15.6 8.9-22 8.9-6.3 0-6.9-.3-22-8.8-8.5-4.9-16.4-9.7-17.5-10.7-4.4-4.4 0-8 28.5-23.2 10.7-5.7 12.9-5.3 31.7 5.2zM651 324c0 .6-.6 1.9-1.2 3.1-1.6 2.6-1.7 2.5 17.8 13.4 20 11.3 19 11.3 39.8-.4 8.7-4.9 16.3-9.4 16.9-10 .7-.7.7-1.8-.3-3.6-1.7-3.2-.6-4.4 2-2 2.8 2.6 2.5 6-.7 8.3-1.6 1.1-9.9 5.9-18.5 10.7-20.4 11.3-19.3 11.4-42.5-1.7-18.3-10.3-20.6-12.6-16.8-16.8 2-2.2 3.5-2.6 3.5-1zm0 17.8c0 .4-.5 1.3-1.1 1.9-.7.7-.9 1.8-.6 2.6.3.8 7.9 5.7 16.9 10.8 21.4 12.3 20.2 12.3 40.8.6 18.4-10.5 18.9-10.9 17.2-13.8-1.6-2.5-.7-3.7 1.6-2.3 3.1 2 2.7 6-1 8.7-5.5 4.1-30.1 17.4-34 18.5-5.4 1.5-9.2.2-24.8-8.6-20.2-11.2-21.5-12.5-19-17.3 1-1.9 4-2.7 4-1.1zm-20.8 179.9c1.7 1.5 1.8 4.1 1.8 40.5v38.9l3.8-.3 3.7-.3.5-28 .5-28h24v58l-44.9.3c-32.3.1-45.3-.1-46.2-.9-1.9-1.5-2-31.9-.2-33.7 1.6-1.6 22-1.6 23.6 0 .8.8 1.2 6.1 1.2 17.1v15.8l3.8-.3 3.7-.3.3-39c.2-35.2.4-39.1 1.9-40.3 2.7-1.9 20.2-1.6 22.5.5zM180 600.9c0 21.5.4 39.2.8 39.5 1.6.9 11.8-6 18.2-12.4 3.7-3.6 7.7-8.8 9-11.5 2.3-4.6 2.5-6.4 2.8-22.6l.4-17.6-3.9-3.2c-4.1-3.4-12.6-7-18.6-7.8-3.6-.5-5.5-1.8-4.4-3 .9-.8 11.4 1.7 16.5 3.9 2.6 1.1 6.6 3.6 9 5.6l4.4 3.5-.4 17.6c-.3 16.7-.4 17.9-3 23.4-1.5 3.1-4.6 7.9-6.9 10.7-5.7 6.7-23.6 19-25.3 17.3-.3-.4-.6-18.3-.6-39.9 0-21.6-.3-39.5-.7-39.7-.5-.3-3.5-.1-6.8.5-6.7 1-15.2 4.6-20.3 8.4l-3.3 2.6.3 17.6c.3 16.4.5 18.1 2.7 22.7 3.2 6.5 12 15.7 19.4 20.2 3.9 2.5 5.4 4 4.7 4.7-1.3 1.3-13.8-7.2-19.2-13.3-2.2-2.5-5.5-7.5-7.2-11.1-3.1-6.4-3.1-6.8-3.4-24.2l-.4-17.7 4.4-3.1c8.7-6.4 18-9.8 27.1-9.9l4.7-.1v38.9zm219.3 35.4c4.8 1.3 11.9 7.5 14.3 12.4 1 2.1 2 7.2 2.3 11.3l.6 7.4 3.5.7c6.6 1.4 7 2.7 7 25 0 18.6-.1 20-2 21.9-1.9 1.9-3.3 2-34.5 2s-32.6-.1-34.5-2c-1.9-1.9-2-3.3-2-21.9 0-22.3.4-23.6 7-25l3.5-.7.6-7.4c.7-8.6 1.6-11.3 5.4-15.8 7.5-8.9 16.6-11.4 28.8-7.9z"/><path d="M249.7 70c-10.1 2.6-20 10.8-24.9 20.8-3.1 6.3-3.3 7.3-3.3 17.2 0 9.6.3 11 3 16.3 3.6 7.2 11.2 14.9 17.9 18.2 10.2 4.9 23.6 5 33.6.3 6.9-3.4 15.3-11.9 18.6-19.1 2.6-5.5 2.9-7.3 2.9-16.2 0-8.8-.3-10.7-2.7-15.8-3.5-7.4-12.1-16-19.4-19.4-6.2-2.8-18.9-4-25.7-2.3zM272 96.3c0 .7-1.3 2.6-3 4.2-2.2 2.1-3 3.8-3 6.4 0 4.4-2.4 7.1-6.3 7.1-4.1 0-6.7-2.6-6.7-6.6 0-4 3-6.4 8-6.4 2.7 0 4.4-.8 6.5-3 3.1-3.2 4.5-3.8 4.5-1.7zm-1.9 32.7c2.2 1.2 2.7 6.8.7 8.8-.8.8-4.8 1.2-11.4 1.2-9.5 0-10.4-.2-11.8-2.2-2.1-3-2-4.4.4-6.8 1.7-1.7 3.3-2 11.1-2 5 0 9.9.5 11 1zM79.3 279.7c-2.9.6-2.9 1.8.3 9.2l2.7 6.1H87c4.7 0 4.8 0 6.8-4.8 1.1-2.6 2.3-5.9 2.7-7.3.6-2.3.3-2.7-2.6-3.3-3.4-.6-10.9-.6-14.6.1zm-14 8.8c-3.5 3.6-6.3 7-6.1 7.7.3.7 3.4 2.4 7 3.9l6.6 2.7 3.1-3.2c1.7-1.8 3.1-3.7 3.1-4.3 0-2.1-5.2-13.3-6.2-13.3-.6 0-3.9 2.9-7.5 6.5zm32.7-1.8c-1.1 2.6-2.4 5.7-2.9 6.8-.7 1.6-.2 2.8 2.6 5.7l3.5 3.6 4.7-2c2.5-1.1 5.6-2.4 6.9-2.9 2.1-.8 2.2-1 .8-3.6-1.7-3.2-8.1-9.5-11.4-11.2-2.1-1.1-2.4-.9-4.2 3.6zm-17 12.1c-9.5 5.1-8.7 19.2 1.3 23.1 7.3 2.8 15.9-1.9 17.3-9.6.9-5-2.3-11.5-6.9-13.6-4.5-2.2-7.4-2.1-11.7.1zm-24.4 4.3c-1.4 7.1-.3 16.9 2 16.9.7 0 3.9-1.2 7.2-2.6l6-2.6V310c0-4.8-.1-4.9-4.7-6.8-2.5-1.1-5.8-2.3-7.2-2.7-2.3-.6-2.7-.3-3.3 2.6zm51.9-.6c-3.3 1.4-6.1 2.5-6.2 2.5-.2 0-.3 2.2-.3 4.9v4.8l6.1 2.7c3.3 1.4 6.6 2.6 7.3 2.6 2.4 0 3.6-12.3 1.6-17.4-1.2-3.1-1.1-3.1-8.5-.1zM65 320.4c-3 1.3-5.6 2.8-5.7 3.3-.7 2.1 11.1 14.2 13.9 14.3.8 0 4.5-8 5.5-11.8.4-1.7-.2-3.1-2.3-5.3-3.3-3.5-4.3-3.5-11.4-.5zm32.3.8l-3 3.3 2.6 6.4c1.5 3.6 3.2 6.6 3.7 6.8 1.5.5 11.1-8.3 12.9-11.7l1.4-2.8-5.8-2.6c-3.2-1.4-6.5-2.6-7.3-2.6-.8 0-2.8 1.5-4.5 3.2zm-17.7 9.9c-1.4 3.3-2.6 6.6-2.6 7.4 0 1.8 7.6 2.9 14.2 2.2 2.8-.4 5.3-.9 5.6-1.2.3-.3-.7-3.6-2.2-7.5l-2.8-7h-9.5l-2.7 6.1zM666 299.4c-12 6.8-16.5 9.8-16.5 11.2 0 1.3 4.5 4.4 16.4 11.2 21.8 12.5 20.4 12.5 42.2.1 12.2-7 16.4-9.9 16.4-11.3 0-1.4-4.2-4.3-16.5-11.3-21.7-12.3-20.2-12.3-42 .1zm-57.3 224.3c-1 .9-.8 74.6.1 76.1.6.9 3.4 1.2 10.3 1l9.4-.3.3-38.8.2-38.7h-9.8c-5.4 0-10.2.3-10.5.7zm33.8 23.5c-.3.7-.4 13-.3 27.3l.3 26h20v-54l-9.8-.3c-7.3-.2-9.9.1-10.2 1zm-66.3 22.6c-.9.7-1.2 4.5-1 15.8l.3 14.9h19l.3-14.9c.2-11.3-.1-15.1-1-15.8-.7-.4-4.7-.8-8.8-.8-4.1 0-8.1.4-8.8.8zm-193.3 68.5C373 642 367 651.2 367 662.6v5.4h8v-5.6c0-6.3 2.4-11.6 6.8-14.9 2-1.5 4.3-2 8.7-2 4.4 0 6.7.5 8.7 2 4.4 3.3 6.8 8.6 6.8 14.9v5.6h8.3l-.5-6.8c-.8-10.3-5.2-17.8-13.1-21.8-4.2-2.2-13.4-2.7-17.8-1.1z"/><path d="M385 648.8c-4.7 2.6-7.2 7.1-7.4 13.5l-.1 5.2h25.9l-.3-5.5c-.3-6.4-2-10-5.6-12.4-4.1-2.7-8.5-3-12.5-.8zm-27.3 22.9c-.4.3-.7 3.7-.7 7.5v6.8h67.1l-.3-7.3-.3-7.2-32.6-.3c-17.9-.1-32.8.1-33.2.5zm26 23.1c-3.1 3.2-5.7 6.1-5.7 6.5 0 .4 2.4.7 5.3.7 5.1 0 5.4-.1 11.7-6.5l6.4-6.5h-6c-5.9 0-6 0-11.7 5.8zm15.3.7l-6.4 6.5h5.8c5.6 0 5.9-.1 11.7-5.7 3.2-3.1 5.9-6 5.9-6.5 0-.4-2.4-.8-5.3-.8-5.1 0-5.4.1-11.7 6.5zm-42 12.8c0 2.4.5 4.8 1.2 5.5 1.7 1.7 62.9 1.7 64.6 0 .7-.7 1.2-3.1 1.2-5.5V704h-67v4.3z"/></svg>